<svg width="25" height="24" viewBox="0 0 25 24" fill="none" xmlns="http://www.w3.org/2000/svg">
<g id="UI icon/bookmark/filled">
<path id="Subtract" fill-rule="evenodd" clip-rule="evenodd" d="M7.5 2C5.84315 2 4.5 3.34315 4.5 5V19C4.5 21.0601 6.85191 22.2361 8.5 21L12.2 18.225C12.3778 18.0917 12.6222 18.0917 12.8 18.225L16.5 21C18.1481 22.2361 20.5 21.0601 20.5 19V5C20.5 3.34315 19.1569 2 17.5 2H7.5ZM9.5 6C8.94772 6 8.5 6.44772 8.5 7C8.5 7.55228 8.94772 8 9.5 8H15.5C16.0523 8 16.5 7.55228 16.5 7C16.5 6.44772 16.0523 6 15.5 6H9.5Z" fill="#6A53E7"/>
</g>
</svg>
