<svg width="25" height="24" viewBox="0 0 25 24" fill="none" xmlns="http://www.w3.org/2000/svg">
<g id="UI icon/bookmark/light">
<path id="Rectangle 190 (Stroke)" fill-rule="evenodd" clip-rule="evenodd" d="M11.3 15.9C12.0111 15.3667 12.9889 15.3667 13.7 15.9L16.9 18.3C17.5592 18.7944 18.5 18.324 18.5 17.5V4.5C18.5 3.94772 18.0523 3.5 17.5 3.5H7.5C6.94772 3.5 6.5 3.94772 6.5 4.5V17.5C6.5 18.324 7.44076 18.7944 8.1 18.3L11.3 15.9ZM12.5 17.5L15.7 19.9C17.6777 21.3833 20.5 19.9721 20.5 17.5V4.5C20.5 2.84315 19.1569 1.5 17.5 1.5H7.5C5.84315 1.5 4.5 2.84315 4.5 4.5V17.5C4.5 19.9721 7.32229 21.3833 9.3 19.9L12.5 17.5Z" fill="#201D2F"/>
<path id="Vector 583 (Stroke)" fill-rule="evenodd" clip-rule="evenodd" d="M8.5 6.5C8.5 5.94772 8.94772 5.5 9.5 5.5H15.5C16.0523 5.5 16.5 5.94772 16.5 6.5C16.5 7.05228 16.0523 7.5 15.5 7.5H9.5C8.94772 7.5 8.5 7.05228 8.5 6.5Z" fill="#201D2F"/>
</g>
</svg>
