<svg width="20" height="20" viewBox="0 0 20 20" fill="none" xmlns="http://www.w3.org/2000/svg">
<g id="clock-fill" opacity="0.8">
<path id="Vector" d="M18.3332 10.0052C18.3332 12.2153 17.4552 14.335 15.8924 15.8978C14.3296 17.4606 12.21 18.3385 9.99984 18.3385C7.7897 18.3385 5.67008 17.4606 4.10728 15.8978C2.54448 14.335 1.6665 12.2153 1.6665 10.0052C1.6665 7.79507 2.54448 5.67546 4.10728 4.11265C5.67008 2.54985 7.7897 1.67188 9.99984 1.67188C12.21 1.67188 14.3296 2.54985 15.8924 4.11265C17.4552 5.67546 18.3332 7.79507 18.3332 10.0052ZM9.99984 5.31771C9.99984 5.17957 9.94496 5.0471 9.84729 4.94942C9.74961 4.85175 9.61714 4.79688 9.479 4.79688C9.34087 4.79688 9.20839 4.85175 9.11072 4.94942C9.01304 5.0471 8.95817 5.17957 8.95817 5.31771V11.0469C8.9582 11.1387 8.98249 11.2288 9.02859 11.3082C9.07469 11.3876 9.14095 11.4534 9.22067 11.499L12.8665 13.5823C12.9861 13.647 13.1263 13.6623 13.2571 13.6249C13.3879 13.5876 13.4989 13.5006 13.5663 13.3825C13.6338 13.2644 13.6524 13.1246 13.6182 12.993C13.584 12.8614 13.4996 12.7484 13.3832 12.6781L9.99984 10.7448V5.31771Z" fill="#201D2F"/>
</g>
</svg>
