<svg width="15" height="15" viewBox="0 0 15 15" fill="none" xmlns="http://www.w3.org/2000/svg">
<g id="Frame 1171275501">
<path id="Vector" d="M7.90039 0.5C4.04059 0.5 0.900391 3.6402 0.900391 7.5C0.900391 11.3598 4.04059 14.5 7.90039 14.5C11.7602 14.5 14.9004 11.3598 14.9004 7.5C14.9004 3.6402 11.7602 0.5 7.90039 0.5ZM7.90039 13.1C4.81269 13.1 2.30039 10.5877 2.30039 7.5C2.30039 4.4123 4.81269 1.9 7.90039 1.9C10.9881 1.9 13.5004 4.4123 13.5004 7.5C13.5004 10.5877 10.9881 13.1 7.90039 13.1Z" fill="#7F8FA4"/>
<path id="Vector_2" d="M8.73506 3.73047H7.3623V7.74824L9.62254 10.192L10.5931 9.14267L8.73506 7.13378V3.73047Z" fill="#7F8FA4"/>
</g>
</svg>
