<svg width="20" height="21" viewBox="0 0 20 21" fill="none" xmlns="http://www.w3.org/2000/svg">
<g id="copy" opacity="0.7">
<path id="Vector" d="M15.937 19.2472H7.18701C6.44109 19.2472 5.72572 18.9509 5.19827 18.4234C4.67083 17.896 4.37451 17.1806 4.37451 16.4347V7.68468C4.37451 6.93876 4.67083 6.22339 5.19827 5.69594C5.72572 5.16849 6.44109 4.87218 7.18701 4.87218H15.937C16.6829 4.87218 17.3983 5.16849 17.9257 5.69594C18.4532 6.22339 18.7495 6.93876 18.7495 7.68468V16.4347C18.7495 17.1806 18.4532 17.896 17.9257 18.4234C17.3983 18.9509 16.6829 19.2472 15.937 19.2472Z" fill="#A3B2C5"/>
<path id="Vector_2" d="M6.24963 3.62225H15.4637C15.2692 3.0743 14.91 2.59994 14.4353 2.26424C13.9605 1.92854 13.3936 1.74796 12.8121 1.74725H4.06213C3.31621 1.74725 2.60084 2.04357 2.0734 2.57102C1.54595 3.09846 1.24963 3.81383 1.24963 4.55975V13.3098C1.25034 13.8912 1.43092 14.4582 1.76662 14.9329C2.10232 15.4076 2.57668 15.7669 3.12463 15.9613V6.74725C3.12463 5.91845 3.45387 5.1236 4.03992 4.53755C4.62598 3.95149 5.42083 3.62225 6.24963 3.62225Z" fill="#A3B2C5"/>
</g>
</svg>
