<svg width="24" height="24" viewBox="0 0 24 24" fill="none" xmlns="http://www.w3.org/2000/svg">
<g id="Group 3201" opacity="0.9">
<path id="Vector" d="M14.9786 16.3336C14.7139 16.3273 14.4619 16.2194 14.2752 16.0324L11.9894 13.7838L9.73171 16.0254C9.53785 16.2108 9.27953 16.3143 9.01079 16.3143C8.74205 16.3143 8.48373 16.2108 8.28988 16.0254L7.97338 15.7102C7.87619 15.6144 7.79904 15.5004 7.74639 15.3748C7.69374 15.2491 7.66663 15.1143 7.66663 14.9781C7.66663 14.842 7.69374 14.7072 7.74639 14.5815C7.79904 14.4559 7.87619 14.3419 7.97338 14.2461L10.2311 11.9975L7.97338 9.74887C7.87619 9.65311 7.79904 9.53911 7.74639 9.41346C7.69374 9.2878 7.66663 9.153 7.66663 9.01684C7.66663 8.88069 7.69374 8.74588 7.74639 8.62023C7.79904 8.49458 7.87619 8.38057 7.97338 8.28481L8.28988 7.96959C8.485 7.77581 8.74931 7.66699 9.02486 7.66699C9.30041 7.66699 9.56472 7.77581 9.75984 7.96959L12.0175 10.2182L14.2752 7.96959C14.4704 7.77581 14.7347 7.66699 15.0102 7.66699C15.2858 7.66699 15.5501 7.77581 15.7452 7.96959L16.0265 8.31984C16.1237 8.4156 16.2009 8.5296 16.2535 8.65526C16.3062 8.78091 16.3333 8.91571 16.3333 9.05187C16.3333 9.18802 16.3062 9.32283 16.2535 9.44848C16.2009 9.57413 16.1237 9.68814 16.0265 9.7839L13.7759 12.0325L16.0265 14.2531C16.1237 14.3489 16.2009 14.4629 16.2535 14.5885C16.3062 14.7142 16.3333 14.849 16.3333 14.9852C16.3333 15.1213 16.3062 15.2561 16.2535 15.3818C16.2009 15.5074 16.1237 15.6214 16.0265 15.7172L15.7171 16.0324C15.6202 16.1288 15.505 16.2051 15.3782 16.2568C15.2514 16.3086 15.1156 16.3347 14.9786 16.3336Z" fill="#7D7C82"/>
<path id="Vector_2" d="M12 24C9.62663 24 7.30655 23.2962 5.33316 21.9776C3.35977 20.6591 1.8217 18.7849 0.913451 16.5922C0.0051994 14.3995 -0.232441 11.9867 0.230582 9.65892C0.693605 7.33115 1.83649 5.19295 3.51472 3.51472C5.19295 1.83649 7.33115 0.693605 9.65892 0.230582C11.9867 -0.232441 14.3995 0.0051994 16.5922 0.913451C18.7849 1.8217 20.6591 3.35977 21.9776 5.33316C23.2962 7.30655 24 9.62663 24 12C23.9963 15.1815 22.7309 18.2316 20.4812 20.4812C18.2316 22.7309 15.1815 23.9963 12 24ZM12 2.39861C10.101 2.39861 8.2447 2.96173 6.66576 4.01674C5.08682 5.07175 3.85618 6.57129 3.12948 8.32571C2.40277 10.0801 2.21263 12.0107 2.5831 13.8731C2.95357 15.7356 3.86802 17.4464 5.2108 18.7892C6.55357 20.132 8.26438 21.0464 10.1269 21.4169C11.9894 21.7874 13.9199 21.5972 15.6743 20.8705C17.4287 20.1438 18.9283 18.9132 19.9833 17.3342C21.0383 15.7553 21.6014 13.899 21.6014 12C21.5977 9.45469 20.585 7.01467 18.7851 5.21486C16.9853 3.41505 14.5453 2.40229 12 2.39861Z" fill="#7D7C82"/>
</g>
</svg>
