<svg width="24" height="24" viewBox="0 0 24 24" fill="none" xmlns="http://www.w3.org/2000/svg">
<g id="ellipsis-vertical" opacity="0.8">
<path id="Vector" d="M11.9991 14.2467C13.2416 14.2467 14.2489 13.2394 14.2489 11.9969C14.2489 10.7544 13.2416 9.74707 11.9991 9.74707C10.7566 9.74707 9.74927 10.7544 9.74927 11.9969C9.74927 13.2394 10.7566 14.2467 11.9991 14.2467Z" fill="black"/>
<path id="Vector_2" d="M11.9991 21.7463C13.2416 21.7463 14.2489 20.739 14.2489 19.4965C14.2489 18.2539 13.2416 17.2466 11.9991 17.2466C10.7566 17.2466 9.74927 18.2539 9.74927 19.4965C9.74927 20.739 10.7566 21.7463 11.9991 21.7463Z" fill="black"/>
<path id="Vector_3" d="M11.9991 6.7474C13.2416 6.7474 14.2489 5.74012 14.2489 4.49757C14.2489 3.25503 13.2416 2.24774 11.9991 2.24774C10.7566 2.24774 9.74927 3.25503 9.74927 4.49757C9.74927 5.74012 10.7566 6.7474 11.9991 6.7474Z" fill="black"/>
</g>
</svg>
