<svg width="140" height="140" viewBox="0 0 140 140" fill="none" xmlns="http://www.w3.org/2000/svg">
<g id="Notification_empty">
<ellipse id="Ellipse 1183" opacity="0.1" cx="70" cy="135.8" rx="70" ry="4.2" fill="#6A53E7"/>
<path id="Union" fill-rule="evenodd" clip-rule="evenodd" d="M64.0486 30.2473C64.0486 27.4597 66.3084 25.2 69.096 25.2C71.8836 25.2 74.1434 27.4597 74.1434 30.2473C74.1434 31.6698 73.5549 32.9549 72.6081 33.8724C86.6975 35.1908 96.8975 44.4858 98.1466 58.5381C100.996 56.9224 104.29 56 107.8 56C118.625 56 127.4 64.7752 127.4 75.5999C127.4 85.3064 120.344 93.3649 111.082 94.9264C111.662 95.8087 112 96.8649 112 97.9999C112 101.093 109.493 103.6 106.4 103.6H82.549C81.9721 110.024 76.574 115.058 70 115.058C63.426 115.058 58.0279 110.024 57.451 103.6H33.6C30.5072 103.6 28 101.093 28 97.9999C28 94.9072 30.5072 92.3999 33.6 92.3999H38.5178V64.2896C38.5178 48.5772 50.3684 35.6326 65.6192 33.9063C64.6518 32.9867 64.0486 31.6874 64.0486 30.2473ZM95.4445 60.0897C95.4486 60.1804 95.4608 60.269 95.4803 60.3549C91.0394 63.9481 88.2 69.4424 88.2 75.5999C88.2 82.7297 92.0068 88.9702 97.6988 92.3999H41.3178V64.2896C41.3178 48.9478 53.7548 36.5107 69.0967 36.5107C83.9665 36.5107 94.7924 45.5638 95.4445 60.0897ZM60.2992 103.858C60.9786 108.608 65.0629 112.258 70 112.258C74.9371 112.258 79.0214 108.608 79.7008 103.858H60.2992ZM30.8 32.04C30.8 31.3551 31.3552 30.8 32.04 30.8C32.7248 30.8 33.28 31.3551 33.28 32.04C33.28 32.7248 32.7248 33.28 32.04 33.28C31.3552 33.28 30.8 32.7248 30.8 32.04ZM32.04 28C29.8088 28 28 29.8087 28 32.04C28 34.2712 29.8088 36.08 32.04 36.08C34.2712 36.08 36.08 34.2712 36.08 32.04C36.08 29.8087 34.2712 28 32.04 28ZM107.8 58.7999C98.5216 58.7999 91 66.3216 91 75.5999C91 84.8783 98.5216 92.3999 107.8 92.3999C117.078 92.3999 124.6 84.8783 124.6 75.5999C124.6 66.3216 117.078 58.7999 107.8 58.7999ZM107.8 63C105.867 63 104.3 64.567 104.3 66.5V74.9C104.3 76.8329 105.867 78.4 107.8 78.4C109.733 78.4 111.3 76.8329 111.3 74.9V66.5C111.3 64.567 109.733 63 107.8 63ZM107.1 66.5C107.1 66.1133 107.413 65.7999 107.8 65.7999C108.187 65.7999 108.5 66.1133 108.5 66.5V74.9C108.5 75.2865 108.187 75.5999 107.8 75.5999C107.413 75.5999 107.1 75.2865 107.1 74.9V66.5ZM104.3 84.7C104.3 86.6329 105.867 88.2 107.8 88.2C109.733 88.2 111.3 86.6329 111.3 84.7C111.3 82.767 109.733 81.2 107.8 81.2C105.867 81.2 104.3 82.767 104.3 84.7ZM107.8 85.4C107.413 85.4 107.1 85.0865 107.1 84.7C107.1 84.3134 107.413 84 107.8 84C108.187 84 108.5 84.3134 108.5 84.7C108.5 85.0865 108.187 85.4 107.8 85.4ZM47.4945 32.9242C47.7912 32.7873 48.1425 32.9223 48.271 33.2227L48.3145 33.3243C48.4588 33.6615 48.3077 34.0635 47.9647 34.2218C42.5369 36.7268 39.3431 40.5604 37.5041 43.7573C36.5833 45.358 36.0014 46.8007 35.6508 47.8384C35.4756 48.357 35.3584 48.7737 35.2856 49.0574C35.2493 49.1991 35.224 49.3076 35.2082 49.3788C35.2003 49.4144 35.1948 49.4407 35.1914 49.4571L35.1902 49.4632L35.1887 49.4705L35.2418 49.2338L35.186 49.4845L35.1795 49.5186C35.1141 49.8618 34.7806 50.0851 34.4384 50.0148C34.1031 49.9459 33.8853 49.6206 33.9494 49.2843L33.9684 49.1846L33.9687 49.1828L33.9694 49.1793L33.9705 49.1734L33.9766 49.1434L33.9771 49.1412C33.982 49.1173 33.989 49.084 33.9984 49.0419C34.0176 48.955 34.0467 48.8303 34.0874 48.6716C34.1688 48.3542 34.2966 47.901 34.485 47.3435C34.8615 46.2291 35.481 44.6953 36.4571 42.9986C38.4121 39.6001 41.7942 35.555 47.4945 32.9242ZM31.2186 48.665L31.1988 48.7604C30.8483 50.6003 32.0404 52.3807 33.8751 52.7575C35.7474 53.1421 37.5724 51.9202 37.93 50.0426L37.9345 50.019L37.9418 49.9852C37.9513 49.9425 37.9694 49.8639 37.9979 49.7529C38.0548 49.5308 38.1525 49.1815 38.3035 48.7347C38.6064 47.8383 39.1173 46.5683 39.9312 45.1535C41.5514 42.3369 44.3518 38.973 49.138 36.7641C50.8475 35.9752 51.6338 33.9634 50.8886 32.2225L50.8452 32.1209C50.096 30.3707 48.0499 29.5841 46.3212 30.3819C39.9788 33.309 36.2034 37.8243 34.03 41.6024C32.947 43.4851 32.2566 45.1916 31.8323 46.4473C31.6197 47.0765 31.4724 47.5972 31.3752 47.976C31.3266 48.1655 31.2904 48.3201 31.2648 48.4355C31.252 48.4933 31.2418 48.5413 31.2341 48.5791L31.2331 48.5838L31.1836 48.8461L31.2083 48.7149L31.2743 48.3931L31.2331 48.5838L31.2186 48.665Z" fill="#6A53E7"/>
</g>
</svg>
