<svg width="24" height="25" viewBox="0 0 24 25" fill="none" xmlns="http://www.w3.org/2000/svg">
<g id="Social Media/google">
<path id="bg" d="M24 12.0615C24 5.43411 18.6274 0.0615234 12 0.0615234C5.37258 0.0615234 0 5.43411 0 12.0615C0 18.6889 5.37258 24.0615 12 24.0615C18.6274 24.0615 24 18.6889 24 12.0615Z" fill="white"/>
<g id="Group 49">
<path id="google" fill-rule="evenodd" clip-rule="evenodd" d="M20.9998 12.2707C20.9998 11.6189 20.9413 10.9923 20.8327 10.3906H12.1759V13.9461H17.1226C16.9095 15.095 16.262 16.0685 15.2885 16.7202V19.0265H18.259C19.9971 17.4263 20.9998 15.0699 20.9998 12.2707Z" fill="#4285F4"/>
<path id="google_2" fill-rule="evenodd" clip-rule="evenodd" d="M12.1759 21.2528C14.6576 21.2528 16.7383 20.4297 18.259 19.0259L15.2885 16.7197C14.4654 17.2712 13.4126 17.597 12.1759 17.597C9.78195 17.597 7.75563 15.9802 7.03284 13.8076H3.96204V16.1891C5.47446 19.193 8.58287 21.2528 12.1759 21.2528Z" fill="#34A853"/>
<path id="google_3" fill-rule="evenodd" clip-rule="evenodd" d="M7.03283 13.8078C6.849 13.2563 6.74455 12.6672 6.74455 12.0614C6.74455 11.4556 6.849 10.8665 7.03283 10.315V7.93359H3.96202C3.3395 9.17445 2.98438 10.5782 2.98438 12.0614C2.98438 13.5446 3.3395 14.9484 3.96202 16.1893L7.03283 13.8078Z" fill="#FBBC05"/>
<path id="google_4" fill-rule="evenodd" clip-rule="evenodd" d="M12.1759 6.52584C13.5254 6.52584 14.737 6.98959 15.6896 7.90039L18.3259 5.26409C16.7341 3.78091 14.6535 2.87012 12.1759 2.87012C8.58287 2.87012 5.47446 4.92986 3.96204 7.93381L7.03284 10.3153C7.75563 8.14271 9.78195 6.52584 12.1759 6.52584Z" fill="#EA4335"/>
</g>
</g>
</svg>
