<svg width="20" height="20" viewBox="0 0 20 20" fill="none" xmlns="http://www.w3.org/2000/svg">
<g id="bxs-help-circle" opacity="0.8">
<path id="Vector" d="M9.99984 1.66797C5.40484 1.66797 1.6665 5.4063 1.6665 10.0013C1.6665 14.5963 5.40484 18.3346 9.99984 18.3346C14.5948 18.3346 18.3332 14.5963 18.3332 10.0013C18.3332 5.4063 14.5948 1.66797 9.99984 1.66797ZM10.8332 15.0013H9.1665V13.3346H10.8332V15.0013ZM11.6465 10.9305C11.4832 11.0621 11.3257 11.188 11.2007 11.313C10.8607 11.6521 10.834 11.9605 10.8332 11.9738V12.0846H9.1665V11.9455C9.1665 11.8471 9.19067 10.9646 10.0215 10.1338C10.184 9.9713 10.3857 9.8063 10.5973 9.63464C11.209 9.1388 11.6107 8.77713 11.6107 8.2788C11.601 7.85782 11.4269 7.45734 11.1257 7.16307C10.8245 6.86879 10.4201 6.70409 9.99901 6.70419C9.57792 6.7043 9.17359 6.86922 8.87254 7.16365C8.57149 7.45808 8.39764 7.85865 8.38817 8.27964H6.7215C6.7215 6.47214 8.19234 5.0013 9.99984 5.0013C11.8073 5.0013 13.2782 6.47214 13.2782 8.27964C13.2782 9.61047 12.2957 10.4046 11.6465 10.9305Z" fill="#201D2F"/>
</g>
</svg>
