<svg width="20" height="20" viewBox="0 0 20 20" fill="none" xmlns="http://www.w3.org/2000/svg">
<g id="enter" opacity="0.8">
<path id="Vector" d="M6.24756 5.30859V9.3711H12.2386L10.1808 7.31289C10.0685 7.19473 10.0068 7.03738 10.0089 6.87441C10.011 6.71143 10.0767 6.55572 10.1919 6.44047C10.3072 6.32522 10.4629 6.25955 10.6259 6.25746C10.7888 6.25537 10.9462 6.31704 11.0644 6.4293L14.1894 9.5543C14.3065 9.6715 14.3723 9.83041 14.3723 9.9961C14.3723 10.1618 14.3065 10.3207 14.1894 10.4379L11.0644 13.5629C10.9462 13.6752 10.7888 13.7368 10.6259 13.7347C10.4629 13.7326 10.3072 13.667 10.1919 13.5517C10.0767 13.4365 10.011 13.2808 10.0089 13.1178C10.0068 12.9548 10.0685 12.7975 10.1808 12.6793L12.2386 10.6211H6.24756V14.6836C6.24818 15.2636 6.47885 15.8196 6.88895 16.2297C7.29905 16.6398 7.85509 16.8705 8.43506 16.8711H16.5601C17.14 16.8705 17.6961 16.6398 18.1062 16.2297C18.5163 15.8196 18.7469 15.2636 18.7476 14.6836V5.30859C18.7469 4.72862 18.5163 4.17258 18.1062 3.76248C17.6961 3.35238 17.14 3.12171 16.5601 3.12109H8.43506C7.85509 3.12171 7.29905 3.35238 6.88895 3.76248C6.47885 4.17258 6.24818 4.72862 6.24756 5.30859Z" fill="#201D2F"/>
<path id="Vector_2" d="M1.87402 9.37109C1.70826 9.37109 1.54929 9.43694 1.43208 9.55415C1.31487 9.67136 1.24902 9.83033 1.24902 9.99609C1.24902 10.1619 1.31487 10.3208 1.43208 10.438C1.54929 10.5552 1.70826 10.6211 1.87402 10.6211H6.24902V9.37109H1.87402Z" fill="#201D2F"/>
</g>
</svg>
