<svg width="24" height="25" viewBox="0 0 24 25" fill="none" xmlns="http://www.w3.org/2000/svg">
<path d="M20.0482 16.9693C18.8445 15.4961 17.9948 14.7462 17.9948 10.6848C17.9948 6.9655 16.0955 5.64045 14.5324 4.9969C14.3247 4.9116 14.1293 4.71567 14.066 4.50241C13.7918 3.5692 13.0231 2.74707 12.0013 2.74707C10.9795 2.74707 10.2104 3.56966 9.93897 4.50334C9.8757 4.71895 9.68024 4.9116 9.4726 4.9969C7.90756 5.64138 6.01021 6.96175 6.01021 10.6848C6.00786 14.7462 5.15808 15.4961 3.95442 16.9693C3.45571 17.5795 3.89255 18.4959 4.76483 18.4959H19.2425C20.1101 18.4959 20.5441 17.5767 20.0482 16.9693Z" stroke="#BABABA" stroke-width="1.49989" stroke-linecap="round" stroke-linejoin="round"/>
<path d="M14.9991 18.4971V19.247C14.9991 20.0426 14.683 20.8056 14.1204 21.3682C13.5579 21.9307 12.7949 22.2468 11.9993 22.2468C11.2037 22.2468 10.4407 21.9307 9.87812 21.3682C9.31556 20.8056 8.99951 20.0426 8.99951 19.247V18.4971" stroke="#BABABA" stroke-width="1.49989" stroke-linecap="round" stroke-linejoin="round"/>
<circle cx="17" cy="5.00098" r="3.5" fill="#6A53E7" stroke="#F6F7F9"/>
</svg>
