<svg width="25" height="24" viewBox="0 0 25 24" fill="none" xmlns="http://www.w3.org/2000/svg">
<g id="UI icon/person/light">
<path id="Ellipse 132 (Stroke)" fill-rule="evenodd" clip-rule="evenodd" d="M12.5 9.5C14.1569 9.5 15.5 8.15685 15.5 6.5C15.5 4.84315 14.1569 3.5 12.5 3.5C10.8431 3.5 9.5 4.84315 9.5 6.5C9.5 8.15685 10.8431 9.5 12.5 9.5ZM12.5 11.5C15.2614 11.5 17.5 9.26142 17.5 6.5C17.5 3.73858 15.2614 1.5 12.5 1.5C9.73858 1.5 7.5 3.73858 7.5 6.5C7.5 9.26142 9.73858 11.5 12.5 11.5Z" fill="#201D2F"/>
<path id="Vector 631 (Stroke)" fill-rule="evenodd" clip-rule="evenodd" d="M9.5 15.5C7.29086 15.5 5.5 17.2909 5.5 19.5V20.5C5.5 21.0523 5.05228 21.5 4.5 21.5C3.94772 21.5 3.5 21.0523 3.5 20.5V19.5C3.5 16.1863 6.18629 13.5 9.5 13.5H15.5C18.8137 13.5 21.5 16.1863 21.5 19.5V20.5C21.5 21.0523 21.0523 21.5 20.5 21.5C19.9477 21.5 19.5 21.0523 19.5 20.5V19.5C19.5 17.2909 17.7091 15.5 15.5 15.5H9.5Z" fill="#201D2F"/>
</g>
</svg>
