<svg width="26" height="24" viewBox="0 0 26 24" fill="none" xmlns="http://www.w3.org/2000/svg">
<g id="Frame 1171275548">
<g id="Group 7071">
<path id="Vector" d="M1.9999 13.2C1.70816 13.2 1.42837 13.3159 1.22208 13.5222C1.01579 13.7285 0.899902 14.0083 0.899902 14.3V16.5C0.899902 16.7917 1.01579 17.0715 1.22208 17.2778C1.42837 17.4841 1.70816 17.6 1.9999 17.6C2.29164 17.6 2.57143 17.4841 2.77772 17.2778C2.98401 17.0715 3.0999 16.7917 3.0999 16.5V14.3C3.0999 14.0083 2.98401 13.7285 2.77772 13.5222C2.57143 13.3159 2.29164 13.2 1.9999 13.2ZM23.9999 13.2C23.7082 13.2 23.4284 13.3159 23.2221 13.5222C23.0158 13.7285 22.8999 14.0083 22.8999 14.3V16.5C22.8999 16.7917 23.0158 17.0715 23.2221 17.2778C23.4284 17.4841 23.7082 17.6 23.9999 17.6C24.2916 17.6 24.5714 17.4841 24.7777 17.2778C24.984 17.0715 25.0999 16.7917 25.0999 16.5V14.3C25.0999 14.0083 24.984 13.7285 24.7777 13.5222C24.5714 13.3159 24.2916 13.2 23.9999 13.2ZM18.4999 5.5H14.0999V4.092C14.4324 3.90004 14.7089 3.6244 14.9019 3.29249C15.0948 2.96057 15.1976 2.58393 15.1999 2.2C15.1999 1.61652 14.9681 1.05694 14.5555 0.644365C14.143 0.231785 13.5834 0 12.9999 0C12.4164 0 11.8568 0.231785 11.4443 0.644365C11.0317 1.05694 10.7999 1.61652 10.7999 2.2C10.8022 2.58393 10.905 2.96057 11.0979 3.29249C11.2909 3.6244 11.5674 3.90004 11.8999 4.092V5.5H7.4999C6.62469 5.5 5.78532 5.84768 5.16645 6.46655C4.54758 7.08542 4.1999 7.92479 4.1999 8.8V18.7C4.1999 19.5752 4.54758 20.4146 5.16645 21.0335C5.78532 21.6523 6.62469 22 7.4999 22H18.4999C19.3751 22 20.2145 21.6523 20.8334 21.0335C21.4522 20.4146 21.7999 19.5752 21.7999 18.7V8.8C21.7999 7.92479 21.4522 7.08542 20.8334 6.46655C20.2145 5.84768 19.3751 5.5 18.4999 5.5ZM14.8919 7.7L14.3419 9.9H11.6579L11.1079 7.7H14.8919ZM19.5999 18.7C19.5999 18.9917 19.484 19.2715 19.2777 19.4778C19.0714 19.6841 18.7916 19.8 18.4999 19.8H7.4999C7.20816 19.8 6.92838 19.6841 6.72208 19.4778C6.5158 19.2715 6.3999 18.9917 6.3999 18.7V8.8C6.3999 8.50826 6.5158 8.22847 6.72208 8.02218C6.92838 7.81589 7.20816 7.7 7.4999 7.7H8.8419L9.6999 11.264C9.76013 11.5081 9.90213 11.7241 10.1023 11.8762C10.3024 12.0284 10.5486 12.1073 10.7999 12.1H15.1999C15.4512 12.1073 15.6974 12.0284 15.8975 11.8762C16.0977 11.7241 16.2397 11.5081 16.2999 11.264L17.1579 7.7H18.4999C18.7916 7.7 19.0714 7.81589 19.2777 8.02218C19.484 8.22847 19.5999 8.50826 19.5999 8.8V18.7Z" fill="#6A53E7"/>
<path id="Subtract" fill-rule="evenodd" clip-rule="evenodd" d="M19.6003 6.59961H5.30029V20.8996H19.6003V6.59961ZM9.7001 14.2988C9.48254 14.2988 9.26986 14.3633 9.08897 14.4842C8.90808 14.6051 8.76709 14.7769 8.68383 14.9779C8.60057 15.1789 8.57879 15.4 8.62123 15.6134C8.66368 15.8268 8.76844 16.0228 8.92228 16.1766C9.07612 16.3305 9.27212 16.4352 9.4855 16.4777C9.69888 16.5201 9.92005 16.4984 10.1211 16.4151C10.322 16.3318 10.4938 16.1909 10.6147 16.01C10.7356 15.8291 10.8001 15.6164 10.8001 15.3988C10.8001 15.1071 10.6842 14.8273 10.4779 14.621C10.2716 14.4147 9.99184 14.2988 9.7001 14.2988ZM16.3001 14.2988C16.0825 14.2988 15.8699 14.3633 15.689 14.4842C15.5081 14.6051 15.3671 14.7769 15.2838 14.9779C15.2006 15.1789 15.1788 15.4 15.2212 15.6134C15.2637 15.8268 15.3684 16.0228 15.5223 16.1766C15.6761 16.3305 15.8721 16.4352 16.0855 16.4777C16.2989 16.5201 16.5201 16.4984 16.7211 16.4151C16.922 16.3318 17.0938 16.1909 17.2147 16.01C17.3356 15.8291 17.4001 15.6164 17.4001 15.3988C17.4001 15.1071 17.2842 14.8273 17.0779 14.621C16.8716 14.4147 16.5918 14.2988 16.3001 14.2988Z" fill="#6A53E7"/>
</g>
</g>
</svg>
