<svg width="20" height="20" viewBox="0 0 20 20" fill="none" xmlns="http://www.w3.org/2000/svg">
<g id="settings" opacity="0.8">
<path id="Vector" d="M9.99902 11.8711C11.0346 11.8711 11.874 11.0316 11.874 9.99609C11.874 8.96056 11.0346 8.12109 9.99902 8.12109C8.96349 8.12109 8.12402 8.96056 8.12402 9.99609C8.12402 11.0316 8.96349 11.8711 9.99902 11.8711Z" fill="#201D2F"/>
<path id="Vector_2" d="M18.3756 11.7148L18.3572 11.7L17.1244 10.7332C17.0464 10.6714 16.9841 10.592 16.9426 10.5015C16.9012 10.411 16.8819 10.312 16.8861 10.2125V9.76094C16.8822 9.66212 16.9018 9.56378 16.9433 9.47401C16.9848 9.38423 17.047 9.30559 17.1248 9.24453L18.3572 8.27735L18.3756 8.2625C18.5657 8.10417 18.6932 7.88339 18.7354 7.63964C18.7777 7.39589 18.7318 7.14507 18.6061 6.93203L16.9377 4.04531C16.9358 4.04259 16.9341 4.03972 16.9326 4.03672C16.8062 3.82663 16.6102 3.66744 16.3787 3.58681C16.1471 3.50618 15.8946 3.50918 15.6651 3.59531L15.6514 3.60039L14.2022 4.18359C14.1107 4.22058 14.0117 4.2353 13.9135 4.22653C13.8152 4.21777 13.7204 4.18579 13.6369 4.1332C13.5088 4.05247 13.3786 3.97617 13.2463 3.9043C13.1605 3.85779 13.0869 3.79177 13.0313 3.71156C12.9757 3.63136 12.9398 3.53922 12.9264 3.44258L12.708 1.89609L12.7033 1.86797C12.6558 1.62844 12.5273 1.41257 12.3393 1.25664C12.1514 1.10071 11.9155 1.01422 11.6713 1.01172H8.33068C8.08305 1.01251 7.84364 1.10067 7.65463 1.26067C7.46563 1.42066 7.33915 1.64223 7.29748 1.88633L7.29396 1.9082L7.07639 3.45781C7.06304 3.55418 7.02738 3.6461 6.97224 3.72626C6.91711 3.80642 6.84403 3.8726 6.75881 3.91953C6.62521 3.99141 6.49474 4.06758 6.36818 4.14688C6.28485 4.19914 6.1903 4.23088 6.09232 4.2395C5.99433 4.24813 5.89569 4.23339 5.80451 4.19649L4.35412 3.61055L4.34045 3.60508C4.11055 3.51886 3.8577 3.51596 3.62589 3.59689C3.39408 3.67783 3.19797 3.83747 3.0717 4.04805L3.06662 4.05664L1.39592 6.94531C1.26999 7.15857 1.22403 7.40967 1.26625 7.6537C1.30848 7.89774 1.43613 8.1188 1.62639 8.27735L1.64475 8.29219L2.87756 9.25899C2.95563 9.32075 3.01793 9.40015 3.05936 9.49067C3.10078 9.58118 3.12014 9.68024 3.11584 9.77969V10.2313C3.11975 10.3301 3.10016 10.4284 3.05866 10.5182C3.01717 10.608 2.95497 10.6866 2.87717 10.7477L1.64475 11.7148L1.62639 11.7297C1.43632 11.888 1.30877 12.1088 1.26655 12.3526C1.22432 12.5963 1.27018 12.8471 1.39592 13.0602L3.06428 15.9469C3.0662 15.9496 3.0679 15.9525 3.06935 15.9555C3.19577 16.1656 3.39177 16.3247 3.62333 16.4054C3.85488 16.486 4.10736 16.483 4.33693 16.3969L4.3506 16.3918L5.79865 15.8086C5.89012 15.7716 5.98907 15.7569 6.08734 15.7657C6.18562 15.7744 6.2804 15.8064 6.36389 15.859C6.49201 15.94 6.62222 16.0163 6.75451 16.0879C6.84028 16.1344 6.91392 16.2004 6.9695 16.2806C7.02507 16.3608 7.06101 16.453 7.07443 16.5496L7.29162 18.0961L7.29631 18.1242C7.34393 18.3641 7.47281 18.5803 7.66123 18.7363C7.84965 18.8923 8.08609 18.9785 8.33068 18.9805H11.6713C11.9189 18.9797 12.1583 18.8915 12.3474 18.7315C12.5364 18.5715 12.6628 18.35 12.7045 18.1059L12.708 18.084L12.9256 16.5344C12.9392 16.4378 12.9751 16.3458 13.0306 16.2656C13.0861 16.1854 13.1596 16.1194 13.2451 16.0727C13.3787 16.0008 13.5092 15.9246 13.6358 15.8453C13.7191 15.7931 13.8136 15.7613 13.9116 15.7527C14.0096 15.7441 14.1082 15.7588 14.1994 15.7957L15.6498 16.3797L15.6635 16.3852C15.8934 16.4715 16.1463 16.4745 16.3781 16.3936C16.61 16.3126 16.8061 16.1529 16.9322 15.9422C16.9338 15.9392 16.9355 15.9364 16.9373 15.9336L18.6057 13.0473C18.7318 12.834 18.778 12.5829 18.7358 12.3387C18.6936 12.0946 18.566 11.8734 18.3756 11.7148ZM13.1225 10.143C13.094 10.7479 12.8904 11.3315 12.5365 11.8229C12.1825 12.3142 11.6933 12.6921 11.1286 12.9106C10.5638 13.1292 9.94768 13.1789 9.35517 13.0537C8.76266 12.9286 8.21927 12.634 7.79109 12.2058C7.3629 11.7775 7.06837 11.2341 6.9433 10.6416C6.81823 10.049 6.86802 9.43295 7.08661 8.86819C7.3052 8.30344 7.68317 7.81436 8.17456 7.46043C8.66595 7.10651 9.24959 6.90298 9.85451 6.87461C10.2888 6.85549 10.7223 6.92695 11.1275 7.08444C11.5326 7.24193 11.9006 7.48201 12.208 7.78941C12.5153 8.0968 12.7554 8.4648 12.9128 8.86999C13.0702 9.27518 13.1417 9.70869 13.1225 10.143Z" fill="#201D2F"/>
</g>
</svg>
