<svg width="20" height="21" viewBox="0 0 20 21" fill="none" xmlns="http://www.w3.org/2000/svg">
<g id="bxs-volume-full" opacity="0.7">
<path id="Vector" d="M14 18.5C16.9397 17.1249 19 14.1364 19 10.5C19 6.86356 16.9397 3.87511 14 2.5V4.27778C15.9895 5.50978 17.3331 7.87511 17.3331 10.5C17.3331 13.1249 15.9895 15.4902 14 16.7222V18.5Z" fill="#201D2F"/>
<path id="Vector_2" d="M13.25 5.93981V15.0602C14.3219 14.057 15 12.1152 15 10.5C15 8.88478 14.3219 6.94305 13.25 5.93981ZM2.75 15.0602H5.10988L11.5 19.5V1.5L5.10988 5.93981H2.75C1.78487 5.93981 1 6.7579 1 7.76388V13.2361C1 14.2421 1.78487 15.0602 2.75 15.0602Z" fill="#201D2F"/>
</g>
</svg>
